<?xml version="1.0" encoding="UTF-8" standalone="no"?>
<svg
   xmlns:dc="http://purl.org/dc/elements/1.1/"
   xmlns:cc="http://creativecommons.org/ns#"
   xmlns:rdf="http://www.w3.org/1999/02/22-rdf-syntax-ns#"
   xmlns:svg="http://www.w3.org/2000/svg"
   xmlns="http://www.w3.org/2000/svg"
   xmlns:sodipodi="http://sodipodi.sourceforge.net/DTD/sodipodi-0.dtd"
   xmlns:inkscape="http://www.inkscape.org/namespaces/inkscape"
   inkscape:version="1.0 (4035a4fb49, 2020-05-01)"
   sodipodi:docname="add.svg"
   version="1.1"
   width="512"
   viewBox="0 0 512 512"
   height="512"
   enable-background="new 0 0 512 512"
   id="Capa_1">
  <metadata
     id="metadata19">
    <rdf:RDF>
      <cc:Work
         rdf:about="">
        <dc:format>image/svg+xml</dc:format>
        <dc:type
           rdf:resource="http://purl.org/dc/dcmitype/StillImage" />
        <dc:title></dc:title>
      </cc:Work>
    </rdf:RDF>
  </metadata>
  <defs
     id="defs17" />
  <sodipodi:namedview
     inkscape:current-layer="Capa_1"
     inkscape:window-maximized="1"
     inkscape:window-y="-8"
     inkscape:window-x="-8"
     inkscape:cy="245.43154"
     inkscape:cx="246.46248"
     inkscape:zoom="1.1877184"
     showgrid="false"
     id="namedview15"
     inkscape:window-height="1027"
     inkscape:window-width="1920"
     inkscape:pageshadow="2"
     inkscape:pageopacity="0"
     guidetolerance="10"
     gridtolerance="10"
     objecttolerance="10"
     borderopacity="1"
     bordercolor="#666666"
     pagecolor="#505050" />
  <g
     style="fill:#ffffff;fill-opacity:1"
     transform="translate(-1.25e-4)"
     id="g12">
    <path
       style="fill:#ffffff;fill-opacity:1"
       id="path2"
       d="m 115.817,138.734 h 195.166 v 30 H 115.817 Z" />
    <path
       style="fill:#ffffff;fill-opacity:1"
       id="path4"
       d="m 115.817,198.734 h 195.166 v 30 H 115.817 Z" />
    <path
       style="fill:#ffffff;fill-opacity:1"
       id="path6"
       d="m 115.817,258.734 h 195.166 v 30 H 115.817 Z" />
    <path
       style="fill:#ffffff;fill-opacity:1"
       id="path8"
       d="M 438.304,330.762 C 422.944,315.401 404.007,305.746 384.15,301.786 V 0 H 111.436 L 42.65,68.787 v 372.418 h 220.429 c 5.203,14.767 13.686,28.302 25.084,39.7 20.052,20.052 46.713,31.095 75.071,31.095 28.357,0 55.019,-11.043 75.07,-31.096 41.395,-41.394 41.395,-108.747 0,-150.142 z M 121.384,32.479 V 78.734 H 75.129 Z M 72.65,411.205 v -302.47 h 78.734 V 30 H 354.15 v 270.11 c -24.084,2.05 -47.598,12.262 -65.987,30.652 -20.053,20.052 -31.096,46.713 -31.096,75.071 0,1.798 0.045,3.588 0.133,5.371 H 72.65 Z m 344.442,48.486 C 402.706,474.077 383.579,482 363.234,482 c -20.346,0 -39.473,-7.923 -53.858,-22.309 -14.386,-14.386 -22.309,-33.513 -22.309,-53.857 0,-20.344 7.923,-39.472 22.309,-53.858 14.851,-14.85 34.351,-22.273 53.858,-22.273 19.502,0 39.011,7.426 53.857,22.273 29.698,29.697 29.698,78.018 10e-4,107.715 z" />
    <path
       style="fill:#ffffff;fill-opacity:1"
       id="path10"
       d="m 378.233,365.807 h -30 v 25.026 h -25.026 v 30 h 25.026 v 25.027 h 30 v -25.027 h 25.027 v -30 h -25.027 z" />
  </g>
</svg>
