<?xml version="1.0" encoding="UTF-8" standalone="no"?>
<svg
   xmlns:osb="http://www.openswatchbook.org/uri/2009/osb"
   xmlns:dc="http://purl.org/dc/elements/1.1/"
   xmlns:cc="http://creativecommons.org/ns#"
   xmlns:rdf="http://www.w3.org/1999/02/22-rdf-syntax-ns#"
   xmlns:svg="http://www.w3.org/2000/svg"
   xmlns="http://www.w3.org/2000/svg"
   xmlns:sodipodi="http://sodipodi.sourceforge.net/DTD/sodipodi-0.dtd"
   xmlns:inkscape="http://www.inkscape.org/namespaces/inkscape"
   inkscape:version="1.0 (4035a4fb49, 2020-05-01)"
   sodipodi:docname="copy.svg"
   version="1.1"
   width="512"
   viewBox="0 0 512 512"
   height="512"
   enable-background="new 0 0 512 512"
   id="Capa_1">
  <metadata
     id="metadata23">
    <rdf:RDF>
      <cc:Work
         rdf:about="">
        <dc:format>image/svg+xml</dc:format>
        <dc:type
           rdf:resource="http://purl.org/dc/dcmitype/StillImage" />
        <dc:title></dc:title>
      </cc:Work>
    </rdf:RDF>
  </metadata>
  <defs
     id="defs21">
    <linearGradient
       osb:paint="solid"
       id="linearGradient1089">
      <stop
         id="stop1087"
         offset="0"
         style="stop-color:#ffffff;stop-opacity:1;" />
    </linearGradient>
  </defs>
  <sodipodi:namedview
     inkscape:current-layer="Capa_1"
     inkscape:window-maximized="1"
     inkscape:window-y="-8"
     inkscape:window-x="-8"
     inkscape:cy="242.67996"
     inkscape:cx="352.84281"
     inkscape:zoom="1.1877184"
     inkscape:pagecheckerboard="false"
     showgrid="false"
     id="namedview19"
     inkscape:window-height="1027"
     inkscape:window-width="1920"
     inkscape:pageshadow="2"
     inkscape:pageopacity="1"
     guidetolerance="10"
     gridtolerance="10"
     objecttolerance="10"
     borderopacity="1"
     bordercolor="#666666"
     pagecolor="#3c3c3c" />
  <a
     transform="matrix(0.94566796,0,0,0.96837246,13.909001,8.5176262)"
     style="opacity:1;fill:#ffffff;fill-opacity:1;stroke:#ffffff;stroke-width:15;stroke-miterlimit:4;stroke-dasharray:none;stroke-opacity:1"
     id="a126">
    <g
       style="fill:#ffffff;fill-opacity:1;stroke:#ffffff;stroke-width:15;stroke-miterlimit:4;stroke-dasharray:none;stroke-opacity:1"
       id="g16">
      <path
         style="fill:#ffffff;fill-opacity:1;stroke:#ffffff;stroke-width:15;stroke-miterlimit:4;stroke-dasharray:none;stroke-opacity:1"
         d="m 62.705,268.111 h 76.969 c 4.143,0 7.5,-3.357 7.5,-7.5 0,-4.143 -3.357,-7.5 -7.5,-7.5 H 62.705 c -4.143,0 -7.5,3.357 -7.5,7.5 0,4.143 3.358,7.5 7.5,7.5 z"
         id="path2" />
      <path
         style="fill:#ffffff;fill-opacity:1;stroke:#ffffff;stroke-width:15;stroke-miterlimit:4;stroke-dasharray:none;stroke-opacity:1"
         d="m 61.767,322.728 h 246.29 c 4.143,0 7.5,-3.357 7.5,-7.5 0,-4.143 -3.357,-7.5 -7.5,-7.5 H 61.767 c -4.143,0 -7.5,3.357 -7.5,7.5 0,4.143 3.357,7.5 7.5,7.5 z"
         id="path4" />
      <path
         style="fill:#ffffff;fill-opacity:1;stroke:#ffffff;stroke-width:15;stroke-miterlimit:4;stroke-dasharray:none;stroke-opacity:1"
         d="M 308.823,362.344 H 61.767 c -4.143,0 -7.5,3.357 -7.5,7.5 0,4.143 3.357,7.5 7.5,7.5 h 247.057 c 4.143,0 7.5,-3.357 7.5,-7.5 0,-4.143 -3.358,-7.5 -7.501,-7.5 z"
         id="path6" />
      <path
         style="fill:#ffffff;fill-opacity:1;stroke:#ffffff;stroke-width:15;stroke-miterlimit:4;stroke-dasharray:none;stroke-opacity:1"
         d="M 160.324,416.959 H 62.705 c -4.143,0 -7.5,3.357 -7.5,7.5 0,4.143 3.357,7.5 7.5,7.5 h 97.619 c 4.143,0 7.5,-3.357 7.5,-7.5 0,-4.143 -3.357,-7.5 -7.5,-7.5 z"
         id="path8" />
      <path
         style="fill:#ffffff;fill-opacity:1;stroke:#ffffff;stroke-width:15;stroke-miterlimit:4;stroke-dasharray:none;stroke-opacity:1"
         d="m 490.5,353.071 c -4.143,0 -7.5,3.357 -7.5,7.5 v 40.548 c 0,6.893 -5.607,12.5 -12.5,12.5 H 441 c -4.143,0 -7.5,3.357 -7.5,7.5 0,4.143 3.357,7.5 7.5,7.5 h 29.5 c 15.163,0 27.5,-12.337 27.5,-27.5 v -40.548 c 0,-4.142 -3.357,-7.5 -7.5,-7.5 z"
         id="path10" />
      <path
         style="fill:#ffffff;fill-opacity:1;stroke:#ffffff;stroke-width:15;stroke-miterlimit:4;stroke-dasharray:none;stroke-opacity:1"
         d="M 406,413.619 H 356.59 V 306.267 h 88.602 c 4.143,0 7.5,-3.357 7.5,-7.5 0,-4.143 -3.357,-7.5 -7.5,-7.5 H 356.59 v -41.599 h 88.602 c 4.143,0 7.5,-3.357 7.5,-7.5 0,-4.143 -3.357,-7.5 -7.5,-7.5 H 356.59 v -14.757 c 0,-7.329 -2.85,-14.225 -8.024,-19.415 L 239.176,90.756 C 234.053,85.618 226.954,82.672 219.7,82.672 H 170.686 V 63.683 c 0,-4.143 -3.357,-7.5 -7.5,-7.5 -4.143,0 -7.5,3.357 -7.5,7.5 V 82.672 H 41.5 c -15.164,0 -27.5,12.336 -27.5,27.5 V 484.5 c 0,15.164 12.336,27.5 27.5,27.5 h 287.59 c 15.164,0 27.5,-12.336 27.5,-27.5 V 428.619 H 406 c 4.143,0 7.5,-3.357 7.5,-7.5 0,-4.143 -3.357,-7.5 -7.5,-7.5 z M 331.024,204.146 h -93.021 c -1.379,0 -2.5,-1.121 -2.5,-2.5 V 108.319 Z M 341.59,484.5 c 0,6.893 -5.607,12.5 -12.5,12.5 H 41.5 C 34.607,497 29,491.393 29,484.5 V 110.172 c 0,-6.893 5.607,-12.5 12.5,-12.5 h 178.2 c 0.269,0 0.535,0.023 0.803,0.041 v 103.933 c 0,9.649 7.851,17.5 17.5,17.5 h 103.55 c 0.015,0.255 0.037,0.508 0.037,0.766 z"
         id="path12" />
      <path
         style="fill:#ffffff;fill-opacity:1;stroke:#ffffff;stroke-width:15;stroke-miterlimit:4;stroke-dasharray:none;stroke-opacity:1"
         d="M 489.977,117.824 380.588,8.087 C 375.466,2.947 368.367,0 361.111,0 H 183.187 c -15.163,0 -27.5,12.336 -27.5,27.5 -0.721,5.018 1.78,10.647 7.5,10.576 5.722,0.069 8.22,-5.559 7.5,-10.576 0,-6.893 5.607,-12.5 12.5,-12.5 0,0 178.46,0.023 178.728,0.041 v 103.933 c 0,9.649 7.851,17.5 17.5,17.5 h 21.027 c 4.143,0 7.5,-3.357 7.5,-7.5 0,-4.143 -3.357,-7.5 -7.5,-7.5 h -21.027 c -1.379,0 -2.5,-1.121 -2.5,-2.5 V 25.648 l 95.521,95.825 h -37 c -4.143,0 -7.5,3.357 -7.5,7.5 0,4.143 3.357,7.5 7.5,7.5 h 47.527 c 0.015,0.255 0.037,0.508 0.037,0.766 v 188.226 c 0,4.143 3.357,7.5 7.5,7.5 4.143,0 7.5,-3.357 7.5,-7.5 V 137.239 c 0,-7.328 -2.85,-14.223 -8.023,-19.415 z"
         id="path14" />
    </g>
  </a>
</svg>
