<?xml version="1.0" encoding="UTF-8" standalone="no"?>
<svg
   xmlns:dc="http://purl.org/dc/elements/1.1/"
   xmlns:cc="http://creativecommons.org/ns#"
   xmlns:rdf="http://www.w3.org/1999/02/22-rdf-syntax-ns#"
   xmlns:svg="http://www.w3.org/2000/svg"
   xmlns="http://www.w3.org/2000/svg"
   xmlns:sodipodi="http://sodipodi.sourceforge.net/DTD/sodipodi-0.dtd"
   xmlns:inkscape="http://www.inkscape.org/namespaces/inkscape"
   inkscape:version="1.0 (4035a4fb49, 2020-05-01)"
   sodipodi:docname="download.svg"
   xml:space="preserve"
   style="enable-background:new 0 0 512 512;"
   viewBox="0 0 512 512"
   y="0px"
   x="0px"
   id="Capa_1"
   version="1.1"><metadata
   id="metadata55"><rdf:RDF><cc:Work
       rdf:about=""><dc:format>image/svg+xml</dc:format><dc:type
         rdf:resource="http://purl.org/dc/dcmitype/StillImage" /><dc:title></dc:title></cc:Work></rdf:RDF></metadata><defs
   id="defs53" /><sodipodi:namedview
   inkscape:current-layer="Capa_1"
   inkscape:window-maximized="1"
   inkscape:window-y="-8"
   inkscape:window-x="-8"
   inkscape:cy="360.29494"
   inkscape:cx="329.95392"
   inkscape:zoom="0.83984375"
   showgrid="false"
   id="namedview51"
   inkscape:window-height="1027"
   inkscape:window-width="1920"
   inkscape:pageshadow="2"
   inkscape:pageopacity="0"
   guidetolerance="10"
   gridtolerance="10"
   objecttolerance="10"
   borderopacity="1"
   bordercolor="#666666"
   pagecolor="#5a5a5a" />
<g
   style="fill:#ffffff;fill-opacity:1"
   id="g6">
	<g
   style="fill:#ffffff;fill-opacity:1"
   id="g4">
		<path
   style="fill:#ffffff;fill-opacity:1"
   id="path2"
   d="M484.078,27.923C466.072,9.918,442.131,0.002,416.667,0.002L95.334,0C42.766,0.003,0,42.77,0.001,95.334L0,416.668    C0.001,469.234,42.768,512,95.335,512h321.332C469.234,512,512,469.234,512,416.667V95.335    C512,69.87,502.084,45.929,484.078,27.923z M482,416.667C482,452.692,452.692,482,416.667,482H95.335    C59.31,482,30.001,452.691,30,416.667l0.001-321.334C30,59.31,59.309,30.002,95.335,30l321.332,0.002    c17.451,0,33.858,6.795,46.198,19.134C475.205,61.476,482,77.883,482,95.335V416.667z" />
	</g>
</g>
<g
   style="fill:#ffffff;fill-opacity:1"
   id="g12">
	<g
   style="fill:#ffffff;fill-opacity:1"
   id="g10">
		<path
   style="fill:#ffffff;fill-opacity:1"
   id="path8"
   d="M346.131,217.492c-5.857-5.857-15.355-5.858-21.213,0L271,271.412L270.999,111.4c0-8.284-6.716-15-15-15s-15,6.716-15,15    L241,271.415l-53.922-53.921c-5.857-5.858-15.355-5.858-21.213,0c-5.858,5.858-5.858,15.355,0,21.213l79.528,79.526    c2.813,2.814,6.628,4.394,10.606,4.394s7.794-1.581,10.607-4.394l79.526-79.528C351.989,232.847,351.989,223.35,346.131,217.492z" />
	</g>
</g>
<g
   style="fill:#ffffff;fill-opacity:1"
   id="g18">
	<g
   style="fill:#ffffff;fill-opacity:1"
   id="g16">
		<path
   style="fill:#ffffff;fill-opacity:1"
   id="path14"
   d="M400.602,385.601h-289.2c-8.284,0-15,6.716-15,15s6.716,15,15,15h289.2c8.284,0,15-6.716,15-15    C415.602,392.316,408.886,385.601,400.602,385.601z" />
	</g>
</g>
<g
   id="g20">
</g>
<g
   id="g22">
</g>
<g
   id="g24">
</g>
<g
   id="g26">
</g>
<g
   id="g28">
</g>
<g
   id="g30">
</g>
<g
   id="g32">
</g>
<g
   id="g34">
</g>
<g
   id="g36">
</g>
<g
   id="g38">
</g>
<g
   id="g40">
</g>
<g
   id="g42">
</g>
<g
   id="g44">
</g>
<g
   id="g46">
</g>
<g
   id="g48">
</g>
</svg>
