<?xml version="1.0" encoding="UTF-8" standalone="no"?>
<svg
   xmlns:dc="http://purl.org/dc/elements/1.1/"
   xmlns:cc="http://creativecommons.org/ns#"
   xmlns:rdf="http://www.w3.org/1999/02/22-rdf-syntax-ns#"
   xmlns:svg="http://www.w3.org/2000/svg"
   xmlns="http://www.w3.org/2000/svg"
   xmlns:sodipodi="http://sodipodi.sourceforge.net/DTD/sodipodi-0.dtd"
   xmlns:inkscape="http://www.inkscape.org/namespaces/inkscape"
   inkscape:version="1.0 (4035a4fb49, 2020-05-01)"
   sodipodi:docname="share.svg"
   id="svg6"
   version="1.1"
   width="512pt"
   viewBox="0 0 512 512.00508"
   height="512pt">
  <metadata
     id="metadata12">
    <rdf:RDF>
      <cc:Work
         rdf:about="">
        <dc:format>image/svg+xml</dc:format>
        <dc:type
           rdf:resource="http://purl.org/dc/dcmitype/StillImage" />
        <dc:title></dc:title>
      </cc:Work>
    </rdf:RDF>
  </metadata>
  <defs
     id="defs10" />
  <sodipodi:namedview
     inkscape:current-layer="svg6"
     inkscape:window-maximized="1"
     inkscape:window-y="-8"
     inkscape:window-x="-8"
     inkscape:cy="564.43423"
     inkscape:cx="779.75314"
     inkscape:zoom="0.44539441"
     showgrid="false"
     id="namedview8"
     inkscape:window-height="1027"
     inkscape:window-width="1920"
     inkscape:pageshadow="2"
     inkscape:pageopacity="0"
     guidetolerance="10"
     gridtolerance="10"
     objecttolerance="10"
     borderopacity="1"
     bordercolor="#666666"
     pagecolor="#222222" />
  <path
     style="fill:#ffffff;fill-opacity:1"
     id="path2"
     d="m453.335938 512.003906h-394.667969c-32.363281 0-58.66406275-26.304687-58.66406275-58.664062v-309.335938c0-32.363281 26.30078175-58.664062 58.66406275-58.664062h74.667969c8.832031 0 16 7.167968 16 16 0 8.832031-7.167969 16-16 16h-74.667969c-14.699219 0-26.664063 11.964844-26.664063 26.664062v309.335938c0 14.695312 11.964844 26.664062 26.664063 26.664062h394.667969c14.699218 0 26.667968-11.96875 26.667968-26.664062v-181.335938c0-8.832031 7.167969-16 16-16 8.832032 0 16 7.167969 16 16v181.335938c0 32.359375-26.304687 58.664062-58.667968 58.664062zm0 0" />
  <path
     style="fill:#ffffff;fill-opacity:1"
     id="path4"
     d="m143.980469 341.0625c-1.171875 0-2.347657-.128906-3.519531-.429688-7.230469-1.683593-12.457032-7.871093-12.457032-15.292968v-32c0-114.6875 93.3125-208 208-208h5.332032v-69.335938c0-6.527344 3.96875-12.394531 10.027343-14.847656 6.035157-2.429688 12.96875-.960938 17.492188 3.753906l138.667969 144c5.972656 6.1875 5.972656 16 0 22.1875l-138.667969 144c-4.523438 4.714844-11.5 6.167969-17.492188 3.753906-6.058593-2.453124-10.027343-8.320312-10.027343-14.847656v-69.332031h-25.34375c-67.113282 0-127.425782 37.289063-157.417969 97.300781-2.753907 5.546875-8.535157 9.089844-14.59375 9.089844zm192.023437-223.722656c-89.601562 0-163.796875 67.304687-174.65625 154.023437 38.78125-43.261719 94.398438-68.691406 154.644532-68.691406h41.34375c8.832031 0 16 7.167969 16 16v45.652344l100.457031-104.320313-100.457031-104.320312v45.65625c0 8.832031-7.167969 16-16 16zm0 0" />
</svg>
